<svg width="3037" height="1151" viewBox="0 0 3037 1151" fill="none" xmlns="http://www.w3.org/2000/svg">
<g style="mix-blend-mode:hard-light">
<ellipse cx="2900.86" cy="477.933" rx="40.3473" ry="38.853" fill="#FF006F"/>
<g clip-path="url(#clip0_9_37)">
<path d="M1268.11 686.486C1268.11 688.915 1268.11 691.345 1268.25 693.646C1268.4 695.948 1268.54 697.994 1268.69 699.4H1247.67C1247.38 698.249 1247.23 697.099 1247.09 695.948C1246.94 694.414 1246.8 692.751 1246.8 691.089C1244.62 694.158 1241.72 696.587 1238.1 698.249C1233.75 700.295 1228.82 701.318 1224.04 701.19C1218.53 701.19 1213.02 700.295 1207.95 698.377C1203.16 696.587 1198.96 693.902 1195.48 690.45C1191.85 686.997 1189.1 682.906 1187.36 678.559C1185.33 673.7 1184.32 668.585 1184.32 663.471C1184.32 658.484 1185.19 653.497 1187.22 648.766C1188.96 644.419 1191.71 640.327 1195.19 636.875C1198.67 633.551 1202.87 630.866 1207.51 628.948C1212.44 627.03 1217.8 626.007 1223.31 626.007C1226.36 626.007 1229.55 626.262 1232.45 626.902C1234.77 627.413 1237.08 628.18 1239.11 629.075C1240.71 629.843 1242.3 630.738 1243.61 631.888C1244.62 632.783 1245.49 633.806 1246.22 634.829V593.913H1267.82V686.486H1268.11ZM1206.64 663.343C1206.64 669.736 1208.53 674.723 1212.3 678.303C1216.06 681.883 1221.28 683.801 1226.79 683.673C1232.16 683.801 1237.37 681.755 1241 678.303C1244.91 674.723 1246.8 669.608 1246.8 663.087C1246.8 656.694 1244.91 651.707 1241 648.255C1237.23 644.803 1232.16 643.013 1226.79 643.14C1221.43 643.013 1216.21 644.93 1212.44 648.383C1208.53 651.963 1206.64 656.95 1206.64 663.343ZM1285.21 699.4V627.669H1307.25V699.4H1285.21ZM1282.6 604.27C1282.46 601.073 1283.91 597.877 1286.52 595.703C1288.98 593.402 1292.46 592.123 1296.09 592.251C1299.71 592.123 1303.19 593.402 1305.8 595.703C1308.41 598.005 1309.71 601.073 1309.71 604.27C1309.71 607.339 1308.41 610.407 1305.8 612.581C1303.34 614.883 1299.71 616.161 1296.09 616.033C1292.46 616.033 1288.98 614.755 1286.52 612.581C1284.05 610.407 1282.6 607.339 1282.6 604.27ZM1335.95 675.746C1336.24 678.559 1337.55 681.244 1339.87 683.289C1342.33 685.463 1345.96 686.614 1350.74 686.614C1354.36 686.614 1357.12 685.847 1358.86 684.44C1360.6 683.162 1361.47 681.372 1361.47 679.454C1361.47 677.791 1360.74 676.257 1359.44 675.106C1357.55 673.7 1355.23 672.677 1352.62 672.421L1341.9 670.247C1333.92 668.713 1328.12 666.028 1324.5 662.192C1320.88 658.484 1318.99 653.753 1318.99 648.894C1318.99 645.698 1319.72 642.629 1321.31 639.816C1322.76 637.003 1324.94 634.446 1327.69 632.4C1330.59 630.226 1333.78 628.564 1337.26 627.413C1341.17 626.135 1345.23 625.495 1349.44 625.495C1354.36 625.367 1359.29 626.135 1363.93 627.669C1367.56 628.82 1370.75 630.738 1373.64 633.039C1375.96 634.957 1377.85 637.259 1379.15 639.816C1380.31 641.862 1381.04 644.035 1381.33 646.337L1362.92 650.045C1362.63 648.894 1362.34 647.871 1361.9 646.721C1361.32 645.57 1360.6 644.419 1359.44 643.524C1358.28 642.501 1356.83 641.734 1355.38 641.222C1353.49 640.583 1351.46 640.327 1349.58 640.327C1346.97 640.327 1344.36 640.967 1342.19 642.373C1340.3 643.524 1339.14 645.442 1339.14 647.488C1339.14 649.15 1339.87 650.684 1341.17 651.707C1342.77 652.858 1344.51 653.625 1346.54 653.881L1358.13 656.055C1366.11 657.461 1372.2 660.274 1376.25 664.238C1380.17 668.074 1382.34 672.933 1382.34 678.047C1382.34 680.988 1381.76 683.929 1380.46 686.614C1379.15 689.427 1377.12 692.112 1374.51 694.158C1371.62 696.459 1368.28 698.377 1364.66 699.528C1360.16 700.935 1355.52 701.702 1350.74 701.574C1345.38 701.702 1340.16 700.935 1335.23 699.272C1331.46 697.994 1327.98 696.076 1324.94 693.646C1322.47 691.601 1320.44 689.171 1319.14 686.486C1317.98 684.312 1317.25 682.011 1316.96 679.581L1335.95 675.746ZM1420.76 627.669H1437.14V644.93H1420.76V674.978C1420.76 678.047 1421.63 680.221 1423.22 681.499C1425.25 682.906 1427.86 683.545 1430.47 683.289C1431.78 683.289 1433.08 683.289 1434.39 683.162C1435.4 683.162 1436.27 683.034 1437.14 682.778V698.761C1435.69 699.272 1434.1 699.656 1432.65 699.912C1430.04 700.295 1427.43 700.551 1424.82 700.551C1416.85 700.551 1410.61 698.633 1405.97 694.669C1401.33 690.833 1399.01 685.335 1399.01 678.303V644.93H1384.37V627.669H1388.43C1392.78 627.669 1395.83 626.518 1398 624.344C1400.03 622.043 1401.19 619.23 1401.04 616.289V606.188H1420.9V627.669H1420.76ZM1497.59 646.976C1495.42 646.593 1493.24 646.337 1490.92 646.337C1488.17 646.337 1485.42 646.721 1482.81 647.36C1480.34 647.999 1478.02 649.15 1476.14 650.684C1474.11 652.474 1472.51 654.52 1471.64 656.822C1470.34 659.89 1469.76 663.215 1469.9 666.539V699.4H1447.87V627.669H1469.18V638.282C1470.34 636.108 1471.93 634.19 1473.82 632.528C1475.56 631.121 1477.73 629.97 1479.91 629.075C1481.94 628.308 1484.11 627.797 1486.29 627.413C1488.17 627.157 1490.2 627.03 1492.08 627.03C1492.95 627.03 1493.82 627.03 1494.69 627.157C1495.56 627.157 1496.43 627.285 1497.3 627.413L1497.59 646.976ZM1506.58 699.4V627.669H1528.62V699.4H1506.58ZM1503.83 604.27C1503.68 601.073 1505.13 597.877 1507.74 595.703C1510.2 593.402 1513.68 592.123 1517.31 592.251C1520.93 592.123 1524.41 593.402 1527.02 595.703C1529.63 598.005 1530.94 601.073 1530.94 604.27C1530.94 607.339 1529.63 610.407 1527.02 612.581C1524.56 614.883 1520.93 616.161 1517.31 616.033C1513.68 616.033 1510.2 614.755 1507.74 612.581C1505.28 610.407 1503.83 607.339 1503.83 604.27ZM1572.4 627.669H1588.78V644.93H1572.4V674.978C1572.4 678.047 1573.27 680.221 1574.86 681.499C1576.89 682.906 1579.5 683.545 1582.11 683.289C1583.41 683.289 1584.72 683.289 1586.02 683.162C1587.04 683.162 1587.91 683.034 1588.78 682.778V698.761C1587.33 699.272 1585.73 699.656 1584.28 699.912C1581.67 700.295 1579.06 700.551 1576.46 700.551C1568.48 700.551 1562.25 698.633 1557.61 694.669C1552.97 690.833 1550.65 685.335 1550.65 678.303V644.93H1536.01V627.669H1540.07C1544.42 627.669 1547.46 626.518 1549.64 624.344C1551.67 622.043 1552.83 619.23 1552.68 616.289V606.188H1572.54V627.669H1572.4ZM1636.62 683.929C1639.23 683.929 1641.98 683.417 1644.45 682.65C1646.91 681.755 1649.23 680.476 1651.11 678.814C1653.14 677.024 1654.59 674.851 1655.61 672.421C1656.77 669.608 1657.35 666.539 1657.35 663.471C1657.35 660.402 1656.77 657.461 1655.61 654.52C1654.59 652.219 1653 650.045 1651.11 648.127C1649.23 646.465 1647.05 645.058 1644.45 644.291C1641.98 643.396 1639.37 643.013 1636.62 643.013C1634.01 643.013 1631.25 643.524 1628.79 644.291C1626.32 645.186 1624 646.465 1622.12 648.127C1620.09 649.917 1618.64 652.091 1617.63 654.52C1616.47 657.333 1615.89 660.402 1615.89 663.471C1615.89 666.539 1616.47 669.48 1617.63 672.421C1618.64 674.723 1620.24 676.896 1622.12 678.814C1624 680.476 1626.18 681.883 1628.79 682.65C1631.25 683.545 1633.86 683.929 1636.62 683.929ZM1636.62 625.495C1642.42 625.495 1648.21 626.39 1653.58 628.308C1658.65 630.098 1663.29 632.783 1667.06 636.236C1670.97 639.688 1674.02 643.78 1676.05 648.255C1678.22 653.114 1679.38 658.356 1679.24 663.599C1679.24 668.841 1678.22 673.955 1676.05 678.814C1674.02 683.289 1670.97 687.381 1667.06 690.833C1663.15 694.286 1658.65 696.971 1653.58 698.761C1648.21 700.679 1642.42 701.702 1636.62 701.574C1630.82 701.574 1625.02 700.679 1619.66 698.761C1614.58 696.971 1609.94 694.286 1606.17 690.833C1602.4 687.381 1599.36 683.289 1597.19 678.814C1595.01 673.955 1593.85 668.841 1594 663.599C1594 658.356 1595.01 653.114 1597.19 648.255C1599.22 643.78 1602.26 639.688 1606.17 636.236C1610.09 632.783 1614.73 630.226 1619.66 628.308C1625.02 626.39 1630.82 625.495 1636.62 625.495Z" fill="url(#paint0_linear_9_37)"/>
<path d="M1729.83 699.401V627.669H1750.85V636.364C1752.01 634.574 1753.46 633.04 1755.2 631.633C1756.94 630.227 1758.97 629.204 1761 628.309C1763.17 627.414 1765.49 626.774 1767.81 626.263C1770.13 625.751 1772.31 625.496 1774.63 625.496C1779.7 625.368 1784.77 626.391 1789.27 628.564C1793.47 630.61 1796.66 633.679 1798.69 637.515C1801.45 633.551 1805.22 630.354 1810 628.309C1814.49 626.519 1819.57 625.496 1824.5 625.623C1828.27 625.623 1831.89 626.135 1835.37 627.158C1838.85 628.181 1842.04 629.843 1844.79 632.017C1847.69 634.446 1849.87 637.259 1851.46 640.583C1853.2 644.547 1854.07 648.639 1853.92 652.858V699.401H1832.61V656.822C1832.76 653.37 1831.6 649.917 1829.28 647.104C1826.96 644.547 1823.34 643.269 1818.26 643.269C1814.06 643.013 1810 644.547 1807.24 647.36C1804.64 650.173 1803.19 653.753 1803.33 657.334V699.401H1781.59V656.822C1781.73 653.37 1780.57 649.917 1778.11 647.104C1775.79 644.547 1772.16 643.269 1767.23 643.269C1763.03 643.013 1758.83 644.547 1755.93 647.36C1753.32 650.173 1751.87 653.753 1752.01 657.461V699.401H1729.83ZM1906.11 683.929C1908.72 683.929 1911.48 683.418 1913.94 682.651C1916.41 681.755 1918.73 680.477 1920.61 678.815C1922.64 677.025 1924.09 674.851 1925.1 672.421C1926.26 669.608 1926.84 666.54 1926.84 663.471C1926.84 660.402 1926.26 657.461 1925.1 654.521C1924.09 652.219 1922.49 650.045 1920.61 648.127C1918.73 646.465 1916.55 645.059 1913.94 644.292C1911.48 643.396 1908.87 643.013 1906.11 643.013C1903.5 643.013 1900.75 643.524 1898.28 644.292C1895.82 645.187 1893.5 646.465 1891.62 648.127C1889.59 649.918 1888.14 652.091 1887.12 654.521C1885.96 657.334 1885.38 660.402 1885.38 663.471C1885.38 666.54 1885.96 669.481 1887.12 672.421C1888.14 674.723 1889.73 676.897 1891.62 678.815C1893.5 680.477 1895.68 681.883 1898.28 682.651C1900.89 683.546 1903.5 683.929 1906.11 683.929ZM1906.11 625.496C1911.91 625.496 1917.71 626.391 1923.07 628.309C1928.15 630.099 1932.79 632.784 1936.56 636.236C1940.47 639.688 1943.51 643.78 1945.54 648.255C1947.72 653.114 1948.88 658.356 1948.73 663.599C1948.73 668.841 1947.72 673.956 1945.54 678.815C1943.51 683.29 1940.47 687.381 1936.56 690.834C1932.64 694.286 1928.15 696.971 1923.07 698.761C1917.71 700.679 1911.91 701.702 1906.11 701.574C1900.31 701.574 1894.52 700.679 1889.15 698.761C1884.08 696.971 1879.44 694.286 1875.67 690.834C1871.9 687.381 1868.86 683.29 1866.68 678.815C1864.51 673.956 1863.35 668.841 1863.49 663.599C1863.49 658.356 1864.51 653.114 1866.68 648.255C1868.71 643.78 1871.76 639.688 1875.67 636.236C1879.58 632.784 1884.22 630.227 1889.15 628.309C1894.66 626.391 1900.31 625.496 1906.11 625.496ZM2037.02 686.486C2037.02 688.916 2037.02 691.345 2037.16 693.647C2037.31 696.076 2037.45 697.994 2037.6 699.401H2016.72C2016.43 698.25 2016.29 697.099 2016.14 695.948C2016 694.414 2015.85 692.752 2015.85 691.089C2013.68 694.158 2010.78 696.588 2007.16 698.25C2002.81 700.296 1997.88 701.319 1993.09 701.191C1987.59 701.191 1982.08 700.296 1977 698.378C1972.22 696.588 1968.01 693.902 1964.54 690.45C1960.91 686.998 1958.16 682.906 1956.42 678.559C1954.39 673.7 1953.37 668.586 1953.37 663.471C1953.37 658.484 1954.24 653.498 1956.27 648.767C1958.01 644.419 1960.77 640.328 1964.25 636.875C1967.72 633.551 1971.93 630.866 1976.57 628.948C1981.5 627.03 1986.86 626.007 1992.37 626.007C1995.41 626.007 1998.6 626.263 2001.5 626.902C2003.82 627.414 2006.14 628.181 2008.17 629.076C2009.77 629.843 2011.36 630.738 2012.66 631.889C2013.68 632.784 2014.55 633.807 2015.27 634.83V593.913H2036.87V686.486H2037.02ZM1975.55 663.343C1975.55 669.736 1977.44 674.723 1981.21 678.303C1984.98 681.883 1990.19 683.801 1995.7 683.673C2001.07 683.801 2006.29 681.755 2009.91 678.303C2013.82 674.723 2015.71 669.608 2015.71 663.087C2015.71 656.694 2013.82 651.708 2009.91 648.255C2006.14 644.803 2001.07 643.013 1995.7 643.141C1990.34 643.013 1985.12 644.931 1981.35 648.383C1977.58 651.963 1975.55 656.95 1975.55 663.343ZM2048.76 679.838C2048.76 676.897 2049.34 673.956 2050.65 671.271C2051.95 668.841 2053.69 666.668 2055.87 664.75C2058.04 662.832 2060.65 661.425 2063.55 660.402C2066.59 659.251 2069.78 658.484 2073.12 658.101L2093.12 655.416C2094.86 655.288 2096.6 654.648 2097.91 653.626C2098.78 652.73 2099.21 651.58 2099.21 650.301C2099.21 647.744 2098.05 645.442 2095.88 643.78C2093.56 641.99 2090.22 640.967 2085.58 640.967C2080.8 640.967 2077.03 642.118 2074.42 644.419C2071.96 646.593 2070.36 649.534 2070.07 652.603L2050.5 648.895C2050.94 645.954 2051.95 643.013 2053.55 640.456C2055.29 637.643 2057.6 634.957 2060.36 632.912C2063.55 630.482 2067.03 628.692 2070.94 627.414C2075.58 625.879 2080.51 625.24 2085.44 625.24C2090.95 625.112 2096.6 625.879 2101.82 627.541C2105.88 628.82 2109.65 630.866 2112.84 633.551C2115.59 635.98 2117.77 638.921 2118.93 642.246C2120.23 645.57 2120.81 649.022 2120.81 652.603V687.893C2120.81 689.811 2120.96 691.857 2121.1 694.03C2121.25 696.204 2121.54 697.994 2121.83 699.145H2101.68C2101.39 697.866 2101.24 696.46 2101.1 695.181C2100.95 693.519 2100.81 691.984 2100.81 690.578C2098.49 693.647 2095.44 696.204 2091.82 697.994C2087.32 700.296 2082.1 701.446 2076.89 701.191C2072.97 701.191 2068.91 700.679 2065.29 699.401C2061.95 698.25 2059.05 696.715 2056.45 694.542C2054.13 692.624 2052.24 690.322 2050.94 687.637C2049.49 685.463 2048.76 682.651 2048.76 679.838ZM2081.38 686.998C2083.7 686.998 2085.87 686.742 2088.05 686.231C2090.22 685.719 2092.11 684.824 2093.7 683.418C2095.44 682.011 2096.75 680.221 2097.62 678.303C2098.63 675.746 2099.21 673.061 2099.07 670.376V667.179L2080.65 669.608C2078.05 669.864 2075.58 670.887 2073.41 672.294C2071.38 673.956 2070.36 676.257 2070.51 678.687C2070.51 680.86 2071.52 682.906 2073.12 684.441C2075.58 686.231 2078.34 687.254 2081.38 686.998Z" fill="#343655"/>
<path d="M1636.37 590.379C1620.42 590.379 1605.93 594.471 1591.86 601.12V622.601C1605.93 613.139 1619.12 607.257 1636.37 607.257C1671.02 607.257 1699.28 631.295 1699.28 660.576C1699.28 694.971 1658.4 738.317 1636.95 759.415C1625.21 748.29 1608.39 727.96 1594.76 711.466H1572.15C1589.11 736.271 1614.33 763.25 1628.4 776.42L1629.84 777.699C1631.73 779.361 1634.19 780.384 1636.95 780.64C1639.7 780.512 1642.17 779.489 1644.05 777.699L1645.5 776.037C1667.39 754.684 1718.57 704.945 1718.57 660.704C1719 622.217 1681.89 590.379 1636.37 590.379Z" fill="url(#paint1_linear_9_37)"/>
</g>
<path d="M1086.82 697.514C1081.93 697.514 1077.61 696.443 1073.84 694.301C1070.15 692.16 1067.2 689.461 1064.97 686.205L1066.38 682.478V696.229H1054.43V596.758H1066.26V655.233L1065.87 650.735C1068.01 647.822 1071.05 645.466 1074.99 643.666C1079.02 641.781 1083.48 640.839 1088.36 640.839C1093.16 640.839 1097.53 641.996 1101.47 644.309C1105.41 646.622 1108.54 649.878 1110.85 654.076C1113.25 658.189 1114.45 663.115 1114.45 668.855C1114.45 674.853 1113.16 679.993 1110.59 684.277C1108.11 688.561 1104.77 691.86 1100.57 694.173C1096.37 696.401 1091.79 697.514 1086.82 697.514ZM1084.38 687.362C1087.8 687.362 1090.89 686.548 1093.63 684.92C1096.37 683.292 1098.51 681.107 1100.05 678.366C1101.6 675.538 1102.37 672.325 1102.37 668.727C1102.37 665.3 1101.55 662.215 1099.93 659.474C1098.38 656.646 1096.24 654.419 1093.5 652.791C1090.84 651.163 1087.8 650.349 1084.38 650.349C1081.46 650.349 1078.76 650.906 1076.28 652.02C1073.79 653.134 1071.7 654.676 1069.98 656.646C1068.27 658.531 1067.07 660.759 1066.38 663.329V673.996C1067.07 676.566 1068.23 678.88 1069.85 680.936C1071.48 682.906 1073.54 684.491 1076.02 685.691C1078.51 686.805 1081.29 687.362 1084.38 687.362ZM1124.83 721.804L1159.91 643.024H1170.97L1136.65 721.804H1124.83ZM1137.94 696.615L1112.36 643.024H1125.86L1147.32 690.575L1137.94 696.615Z" fill="#544E4E"/>
<path d="M143.498 571.08L214.828 384.346H265.28L336.61 571.08H287.897L271.08 528.746H208.738L192.211 571.08H143.498ZM215.118 494.241H264.701L239.764 429.29L215.118 494.241ZM386.571 571.08L315.242 384.346H363.955L411.508 517.727L459.351 384.346H508.354L437.024 571.08H386.571ZM521.95 571.08V384.346H659.681V420.301H568.634V459.446H648.952V495.98H568.634V535.125H659.681V571.08H521.95ZM676.138 571.08V384.346H722.822V535.125H810.969V571.08H676.138ZM823.247 571.08V384.346H869.93V535.125H958.078V571.08H823.247ZM964.557 571.08L1035.89 384.346H1086.34L1157.67 571.08H1108.96L1092.14 528.746H1029.8L1013.27 571.08H964.557ZM1036.18 494.241H1085.76L1060.82 429.29L1036.18 494.241ZM1175.51 571.08V384.346H1215.53L1294.98 495.98V384.346H1341.95V571.08H1301.64L1222.2 459.736V571.08H1175.51ZM1365.66 571.08V384.346H1503.39V420.301H1412.35V459.446H1492.66V495.98H1412.35V535.125H1503.39V571.08H1365.66ZM1519.85 571.08V384.346H1600.75C1619.69 384.346 1635.64 387.536 1648.59 393.915C1661.54 400.101 1671.4 410.153 1678.17 424.071C1684.93 437.795 1688.32 456.063 1688.32 478.873C1688.32 510.962 1680.87 534.352 1665.99 549.043C1651.3 563.734 1629.55 571.08 1600.75 571.08H1519.85ZM1566.53 535.125H1594.37C1604.42 535.125 1612.83 533.675 1619.6 530.776C1626.55 527.683 1631.77 522.077 1635.25 513.958C1638.93 505.839 1640.76 494.144 1640.76 478.873C1640.76 463.408 1639.12 451.52 1635.83 443.208C1632.74 434.703 1627.71 428.807 1620.76 425.521C1613.99 422.041 1605.19 420.301 1594.37 420.301H1566.53V535.125ZM1684.66 571.08L1755.99 384.346H1806.44L1877.77 571.08H1829.06L1812.24 528.746H1749.9L1733.38 571.08H1684.66ZM1756.28 494.241H1805.87L1780.93 429.29L1756.28 494.241ZM1952.12 571.08V384.346H2089.85V420.301H1998.8V459.446H2079.12V495.98H1998.8V535.125H2089.85V571.08H1952.12ZM2106.3 571.08V384.346H2146.32L2225.77 495.98V384.346H2272.74V571.08H2232.44L2152.99 459.736V571.08H2106.3ZM2418.48 571.08L2347.15 384.346H2395.86L2443.42 517.727L2491.26 384.346H2540.26L2468.93 571.08H2418.48ZM2553.86 571.08V384.346H2600.54V571.08H2553.86ZM2685.51 571.08L2614.18 384.346H2662.9L2710.45 517.727L2758.29 384.346H2807.3L2735.97 571.08H2685.51Z" fill="#333030"/>
<g clip-path="url(#paint2_diamond_9_37_clip_path)" data-figma-skip-parse="true"><g transform="matrix(1.46 0 0 0.2165 1594.51 468.58)"><rect x="0" y="0" width="1009.12" height="1061.47" fill="url(#paint2_diamond_9_37)" opacity="1" shape-rendering="crispEdges"/><rect x="0" y="0" width="1009.12" height="1061.47" transform="scale(1 -1)" fill="url(#paint2_diamond_9_37)" opacity="1" shape-rendering="crispEdges"/><rect x="0" y="0" width="1009.12" height="1061.47" transform="scale(-1 1)" fill="url(#paint2_diamond_9_37)" opacity="1" shape-rendering="crispEdges"/><rect x="0" y="0" width="1009.12" height="1061.47" transform="scale(-1)" fill="url(#paint2_diamond_9_37)" opacity="1" shape-rendering="crispEdges"/></g></g><path d="M2900.81 573.979C2870.46 573.979 2847.36 566.247 2831.51 550.783C2815.66 535.318 2807.73 511.252 2807.73 478.583C2807.73 443.981 2815.66 419.141 2831.51 404.064C2847.36 388.986 2870.46 381.447 2900.81 381.447C2931.16 381.447 2954.26 388.986 2970.11 404.064C2985.96 419.141 2993.88 443.981 2993.88 478.583C2993.88 511.252 2985.96 535.318 2970.11 550.783C2954.26 566.247 2931.16 573.979 2900.81 573.979ZM2900.81 534.255C2916.47 534.255 2927.87 529.809 2935.02 520.917C2942.37 511.832 2946.04 497.72 2946.04 478.583C2946.04 457.706 2942.37 443.015 2935.02 434.509C2927.87 425.81 2916.47 421.461 2900.81 421.461C2884.96 421.461 2873.36 425.81 2866.01 434.509C2858.86 443.015 2855.28 457.706 2855.28 478.583C2855.28 497.72 2858.86 511.832 2866.01 520.917C2873.36 529.809 2884.96 534.255 2900.81 534.255Z" data-figma-gradient-fill="{&#34;type&#34;:&#34;GRADIENT_DIAMOND&#34;,&#34;stops&#34;:[{&#34;color&#34;:{&#34;r&#34;:0.680725097656250,&#34;g&#34;:0.59866750240325928,&#34;b&#34;:0.64516675472259521,&#34;a&#34;:1.0},&#34;position&#34;:0.0},{&#34;color&#34;:{&#34;r&#34;:0.60000002384185791,&#34;g&#34;:0.077647060155868530,&#34;b&#34;:0.27764704823493958,&#34;a&#34;:1.0},&#34;position&#34;:0.076955579221248627},{&#34;color&#34;:{&#34;r&#34;:0.78651517629623413,&#34;g&#34;:0.10178431868553162,&#34;b&#34;:0.36395603418350220,&#34;a&#34;:1.0},&#34;position&#34;:1.0}],&#34;stopsVar&#34;:[{&#34;color&#34;:{&#34;r&#34;:0.680725097656250,&#34;g&#34;:0.59866750240325928,&#34;b&#34;:0.64516675472259521,&#34;a&#34;:1.0},&#34;position&#34;:0.0},{&#34;color&#34;:{&#34;r&#34;:0.60000002384185791,&#34;g&#34;:0.077647060155868530,&#34;b&#34;:0.27764704823493958,&#34;a&#34;:1.0},&#34;position&#34;:0.076955579221248627},{&#34;color&#34;:{&#34;r&#34;:0.78651517629623413,&#34;g&#34;:0.10178431868553162,&#34;b&#34;:0.36395603418350220,&#34;a&#34;:1.0},&#34;position&#34;:1.0}],&#34;transform&#34;:{&#34;m00&#34;:2920.0,&#34;m01&#34;:0.0,&#34;m02&#34;:134.5090332031250,&#34;m10&#34;:0.0,&#34;m11&#34;:433.0,&#34;m12&#34;:252.07978820800781},&#34;opacity&#34;:1.0,&#34;blendMode&#34;:&#34;NORMAL&#34;,&#34;visible&#34;:true}"/>
</g>
<defs>
<clipPath id="paint2_diamond_9_37_clip_path"><path d="M2900.81 573.979C2870.46 573.979 2847.36 566.247 2831.51 550.783C2815.66 535.318 2807.73 511.252 2807.73 478.583C2807.73 443.981 2815.66 419.141 2831.51 404.064C2847.36 388.986 2870.46 381.447 2900.81 381.447C2931.16 381.447 2954.26 388.986 2970.11 404.064C2985.96 419.141 2993.88 443.981 2993.88 478.583C2993.88 511.252 2985.96 535.318 2970.11 550.783C2954.26 566.247 2931.16 573.979 2900.81 573.979ZM2900.81 534.255C2916.47 534.255 2927.87 529.809 2935.02 520.917C2942.37 511.832 2946.04 497.72 2946.04 478.583C2946.04 457.706 2942.37 443.015 2935.02 434.509C2927.87 425.81 2916.47 421.461 2900.81 421.461C2884.96 421.461 2873.36 425.81 2866.01 434.509C2858.86 443.015 2855.28 457.706 2855.28 478.583C2855.28 497.72 2858.86 511.832 2866.01 520.917C2873.36 529.809 2884.96 534.255 2900.81 534.255Z"/></clipPath><linearGradient id="paint0_linear_9_37" x1="1431.81" y1="592.127" x2="1431.81" y2="701.623" gradientUnits="userSpaceOnUse">
<stop stop-color="#C73056"/>
<stop offset="1" stop-color="#FF2176"/>
</linearGradient>
<linearGradient id="paint1_linear_9_37" x1="1645.34" y1="590.388" x2="1645.34" y2="780.72" gradientUnits="userSpaceOnUse">
<stop stop-color="#C73056"/>
<stop offset="1" stop-color="#FF2176"/>
</linearGradient>
<linearGradient id="paint2_diamond_9_37" x1="0" y1="0" x2="500" y2="500" gradientUnits="userSpaceOnUse">
<stop stop-color="#AE99A5"/>
<stop offset="0.0769556" stop-color="#991447"/>
<stop offset="1" stop-color="#C91A5D"/>
</linearGradient>
<clipPath id="clip0_9_37">
<rect width="941.163" height="191.423" fill="white" transform="translate(1182.27 589.787)"/>
</clipPath>
</defs>
</svg>
