<svg width="990" height="353" viewBox="0 0 990 353" fill="none" xmlns="http://www.w3.org/2000/svg">
<g style="mix-blend-mode:hard-light" clip-path="url(#clip0_0_1)">
<rect width="990" height="353" fill="white"/>
<g clip-path="url(#clip1_0_1)">
<path d="M398.302 229.695C398.302 230.508 398.302 231.32 398.351 232.09C398.399 232.861 398.448 233.545 398.496 234.016H391.463C391.366 233.631 391.317 233.246 391.269 232.861C391.22 232.347 391.172 231.791 391.172 231.235C390.444 232.262 389.474 233.074 388.262 233.631C386.806 234.315 385.157 234.657 383.557 234.615C381.713 234.615 379.87 234.315 378.172 233.673C376.572 233.074 375.165 232.176 374.001 231.021C372.788 229.866 371.867 228.497 371.285 227.042C370.606 225.416 370.266 223.705 370.266 221.994C370.266 220.325 370.557 218.657 371.236 217.074C371.818 215.619 372.74 214.25 373.904 213.095C375.068 211.983 376.475 211.084 378.027 210.443C379.676 209.801 381.471 209.459 383.314 209.459C384.333 209.459 385.4 209.544 386.37 209.758C387.146 209.929 387.922 210.186 388.601 210.485C389.135 210.742 389.668 211.042 390.105 211.427C390.444 211.726 390.735 212.068 390.978 212.411V198.72H398.205V229.695H398.302ZM377.736 221.951C377.736 224.09 378.366 225.759 379.628 226.957C380.889 228.154 382.635 228.796 384.478 228.753C386.273 228.796 388.019 228.112 389.232 226.957C390.541 225.759 391.172 224.047 391.172 221.865C391.172 219.726 390.541 218.058 389.232 216.903C387.971 215.748 386.273 215.149 384.478 215.191C382.683 215.149 380.937 215.79 379.676 216.945C378.366 218.143 377.736 219.812 377.736 221.951ZM404.026 234.016V210.015H411.399V234.016H404.026ZM403.153 202.186C403.104 201.116 403.589 200.046 404.462 199.319C405.287 198.549 406.451 198.121 407.664 198.164C408.877 198.121 410.041 198.549 410.914 199.319C411.787 200.089 412.223 201.116 412.223 202.186C412.223 203.212 411.787 204.239 410.914 204.966C410.089 205.736 408.877 206.164 407.664 206.122C406.451 206.122 405.287 205.694 404.462 204.966C403.638 204.239 403.153 203.212 403.153 202.186ZM421.003 226.101C421.1 227.042 421.536 227.941 422.313 228.625C423.137 229.352 424.35 229.737 425.95 229.737C427.163 229.737 428.085 229.481 428.667 229.01C429.249 228.582 429.54 227.983 429.54 227.342C429.54 226.785 429.297 226.272 428.861 225.887C428.23 225.416 427.454 225.074 426.581 224.989L422.992 224.261C420.324 223.748 418.384 222.849 417.171 221.566C415.958 220.325 415.328 218.742 415.328 217.117C415.328 216.047 415.57 215.02 416.104 214.079C416.589 213.138 417.316 212.282 418.238 211.598C419.208 210.87 420.275 210.314 421.439 209.929C422.749 209.501 424.107 209.287 425.514 209.287C427.163 209.245 428.812 209.501 430.364 210.015C431.577 210.4 432.644 211.042 433.614 211.812C434.39 212.453 435.021 213.223 435.458 214.079C435.846 214.764 436.088 215.491 436.185 216.261L430.025 217.502C429.928 217.117 429.831 216.774 429.685 216.389C429.491 216.004 429.249 215.619 428.861 215.32C428.473 214.977 427.988 214.721 427.503 214.55C426.872 214.336 426.193 214.25 425.562 214.25C424.689 214.25 423.816 214.464 423.089 214.935C422.458 215.32 422.07 215.961 422.07 216.646C422.07 217.202 422.313 217.716 422.749 218.058C423.283 218.443 423.865 218.7 424.544 218.785L428.424 219.512C431.092 219.983 433.129 220.924 434.487 222.251C435.797 223.534 436.525 225.16 436.525 226.871C436.525 227.855 436.331 228.839 435.894 229.737C435.458 230.679 434.778 231.577 433.905 232.262C432.935 233.032 431.82 233.673 430.607 234.058C429.103 234.529 427.551 234.786 425.95 234.743C424.156 234.786 422.41 234.529 420.76 233.973C419.499 233.545 418.335 232.903 417.316 232.09C416.492 231.406 415.813 230.593 415.376 229.695C414.988 228.967 414.746 228.197 414.649 227.384L421.003 226.101ZM449.379 210.015H454.86V215.79H449.379V225.844C449.379 226.871 449.67 227.598 450.203 228.026C450.882 228.497 451.755 228.711 452.629 228.625C453.065 228.625 453.502 228.625 453.938 228.582C454.278 228.582 454.569 228.54 454.86 228.454V233.802C454.375 233.973 453.841 234.101 453.356 234.187C452.483 234.315 451.61 234.401 450.737 234.401C448.069 234.401 445.983 233.759 444.431 232.433C442.879 231.149 442.103 229.31 442.103 226.957V215.79H437.204V210.015H438.562C440.017 210.015 441.036 209.63 441.763 208.902C442.442 208.132 442.83 207.191 442.782 206.207V202.827H449.427V210.015H449.379ZM475.087 216.475C474.359 216.347 473.631 216.261 472.855 216.261C471.934 216.261 471.012 216.389 470.139 216.603C469.314 216.817 468.538 217.202 467.908 217.716C467.229 218.315 466.695 218.999 466.404 219.769C465.968 220.796 465.774 221.908 465.822 223.021V234.016H458.449V210.015H465.58V213.566C465.968 212.838 466.501 212.197 467.132 211.64C467.714 211.17 468.441 210.785 469.169 210.485C469.848 210.229 470.576 210.058 471.303 209.929C471.934 209.844 472.613 209.801 473.243 209.801C473.534 209.801 473.826 209.801 474.117 209.844C474.408 209.844 474.699 209.886 474.99 209.929L475.087 216.475ZM478.094 234.016V210.015H485.467V234.016H478.094ZM477.172 202.186C477.124 201.116 477.609 200.046 478.482 199.319C479.307 198.549 480.471 198.121 481.683 198.164C482.896 198.121 484.06 198.549 484.933 199.319C485.806 200.089 486.243 201.116 486.243 202.186C486.243 203.212 485.806 204.239 484.933 204.966C484.109 205.736 482.896 206.164 481.683 206.122C480.471 206.122 479.307 205.694 478.482 204.966C477.657 204.239 477.172 203.212 477.172 202.186ZM500.116 210.015H505.597V215.79H500.116V225.844C500.116 226.871 500.407 227.598 500.94 228.026C501.619 228.497 502.492 228.711 503.365 228.625C503.802 228.625 504.239 228.625 504.675 228.582C505.015 228.582 505.306 228.54 505.597 228.454V233.802C505.112 233.973 504.578 234.101 504.093 234.187C503.22 234.315 502.347 234.401 501.474 234.401C498.806 234.401 496.72 233.759 495.168 232.433C493.616 231.149 492.84 229.31 492.84 226.957V215.79H487.941V210.015H489.299C490.754 210.015 491.773 209.63 492.5 208.902C493.179 208.132 493.567 207.191 493.519 206.207V202.827H500.164V210.015H500.116ZM521.604 228.839C522.477 228.839 523.398 228.668 524.223 228.411C525.047 228.112 525.823 227.684 526.454 227.128C527.133 226.529 527.618 225.801 527.958 224.989C528.346 224.047 528.54 223.021 528.54 221.994C528.54 220.967 528.346 219.983 527.958 218.999C527.618 218.229 527.085 217.502 526.454 216.86C525.823 216.304 525.096 215.833 524.223 215.576C523.398 215.277 522.525 215.149 521.604 215.149C520.73 215.149 519.809 215.32 518.984 215.576C518.16 215.876 517.384 216.304 516.753 216.86C516.074 217.459 515.589 218.186 515.249 218.999C514.861 219.94 514.667 220.967 514.667 221.994C514.667 223.021 514.861 224.005 515.249 224.989C515.589 225.759 516.122 226.486 516.753 227.128C517.384 227.684 518.111 228.154 518.984 228.411C519.809 228.711 520.682 228.839 521.604 228.839ZM521.604 209.287C523.544 209.287 525.484 209.587 527.279 210.229C528.976 210.828 530.529 211.726 531.79 212.881C533.099 214.036 534.118 215.405 534.797 216.903C535.525 218.528 535.913 220.283 535.864 222.037C535.864 223.791 535.525 225.502 534.797 227.128C534.118 228.625 533.099 229.994 531.79 231.149C530.48 232.304 528.976 233.203 527.279 233.802C525.484 234.443 523.544 234.786 521.604 234.743C519.663 234.743 517.723 234.443 515.928 233.802C514.231 233.203 512.678 232.304 511.417 231.149C510.156 229.994 509.138 228.625 508.41 227.128C507.682 225.502 507.294 223.791 507.343 222.037C507.343 220.283 507.682 218.528 508.41 216.903C509.089 215.405 510.108 214.036 511.417 212.881C512.727 211.726 514.279 210.87 515.928 210.229C517.723 209.587 519.663 209.287 521.604 209.287Z" fill="url(#paint0_linear_0_1)"/>
<path d="M552.793 234.016V210.015H559.826V212.924C560.214 212.325 560.699 211.812 561.281 211.341C561.863 210.871 562.542 210.528 563.221 210.229C563.949 209.929 564.725 209.715 565.501 209.544C566.277 209.373 567.005 209.288 567.781 209.288C569.479 209.245 571.176 209.587 572.68 210.314C574.087 210.999 575.154 212.026 575.833 213.309C576.754 211.983 578.016 210.913 579.616 210.229C581.12 209.63 582.818 209.288 584.467 209.33C585.728 209.33 586.941 209.501 588.105 209.844C589.269 210.186 590.336 210.742 591.258 211.469C592.228 212.282 592.955 213.224 593.489 214.336C594.071 215.662 594.362 217.031 594.313 218.443V234.016H587.183V219.769C587.232 218.614 586.844 217.459 586.067 216.518C585.291 215.662 584.079 215.234 582.381 215.234C580.974 215.149 579.616 215.662 578.695 216.603C577.822 217.545 577.336 218.742 577.385 219.94V234.016H570.109V219.769C570.158 218.614 569.77 217.459 568.945 216.518C568.169 215.662 566.956 215.234 565.307 215.234C563.9 215.149 562.494 215.662 561.524 216.603C560.651 217.545 560.165 218.742 560.214 219.983V234.016H552.793ZM611.775 228.839C612.648 228.839 613.57 228.668 614.395 228.411C615.219 228.112 615.995 227.684 616.626 227.128C617.305 226.529 617.79 225.802 618.13 224.989C618.518 224.048 618.712 223.021 618.712 221.994C618.712 220.967 618.518 219.983 618.13 218.999C617.79 218.229 617.257 217.502 616.626 216.86C615.995 216.304 615.268 215.833 614.395 215.577C613.57 215.277 612.697 215.149 611.775 215.149C610.902 215.149 609.981 215.32 609.156 215.577C608.332 215.876 607.555 216.304 606.925 216.86C606.246 217.459 605.761 218.186 605.421 218.999C605.033 219.94 604.839 220.967 604.839 221.994C604.839 223.021 605.033 224.005 605.421 224.989C605.761 225.759 606.294 226.486 606.925 227.128C607.555 227.684 608.283 228.155 609.156 228.411C610.029 228.711 610.902 228.839 611.775 228.839ZM611.775 209.288C613.716 209.288 615.656 209.587 617.451 210.229C619.148 210.828 620.7 211.726 621.962 212.881C623.271 214.036 624.29 215.405 624.969 216.903C625.697 218.529 626.085 220.283 626.036 222.037C626.036 223.791 625.697 225.502 624.969 227.128C624.29 228.625 623.271 229.994 621.962 231.149C620.652 232.305 619.148 233.203 617.451 233.802C615.656 234.444 613.716 234.786 611.775 234.743C609.835 234.743 607.895 234.444 606.1 233.802C604.403 233.203 602.85 232.305 601.589 231.149C600.328 229.994 599.309 228.625 598.582 227.128C597.854 225.502 597.466 223.791 597.515 222.037C597.515 220.283 597.854 218.529 598.582 216.903C599.261 215.405 600.28 214.036 601.589 212.881C602.899 211.726 604.451 210.871 606.1 210.229C607.943 209.587 609.835 209.288 611.775 209.288ZM655.576 229.695C655.576 230.508 655.576 231.321 655.624 232.091C655.673 232.903 655.722 233.545 655.77 234.016H648.785C648.688 233.631 648.64 233.246 648.591 232.861C648.543 232.347 648.494 231.791 648.494 231.235C647.767 232.262 646.796 233.075 645.584 233.631C644.129 234.315 642.479 234.658 640.879 234.615C639.036 234.615 637.192 234.315 635.495 233.674C633.894 233.075 632.487 232.176 631.323 231.021C630.111 229.866 629.189 228.497 628.607 227.042C627.928 225.417 627.588 223.705 627.588 221.994C627.588 220.325 627.879 218.657 628.558 217.074C629.14 215.619 630.062 214.25 631.226 213.095C632.39 211.983 633.797 211.084 635.349 210.443C636.998 209.801 638.793 209.459 640.636 209.459C641.655 209.459 642.722 209.544 643.692 209.758C644.468 209.929 645.244 210.186 645.923 210.485C646.457 210.742 646.99 211.042 647.427 211.427C647.767 211.726 648.058 212.068 648.3 212.411V198.72H655.527V229.695H655.576ZM635.01 221.951C635.01 224.09 635.64 225.759 636.901 226.957C638.162 228.155 639.909 228.796 641.752 228.754C643.547 228.796 645.293 228.112 646.505 226.957C647.815 225.759 648.446 224.047 648.446 221.866C648.446 219.726 647.815 218.058 646.505 216.903C645.244 215.748 643.547 215.149 641.752 215.192C639.957 215.149 638.211 215.79 636.95 216.946C635.689 218.144 635.01 219.812 635.01 221.951ZM659.505 227.47C659.505 226.486 659.699 225.502 660.136 224.604C660.572 223.791 661.154 223.064 661.882 222.422C662.609 221.78 663.482 221.309 664.453 220.967C665.471 220.582 666.538 220.325 667.654 220.197L674.348 219.299C674.93 219.256 675.512 219.042 675.948 218.7C676.239 218.4 676.385 218.015 676.385 217.587C676.385 216.732 675.997 215.962 675.269 215.405C674.493 214.807 673.378 214.464 671.825 214.464C670.225 214.464 668.964 214.849 668.09 215.619C667.266 216.347 666.732 217.331 666.635 218.357L660.087 217.117C660.233 216.133 660.572 215.149 661.106 214.293C661.688 213.352 662.464 212.453 663.385 211.769C664.452 210.956 665.617 210.357 666.926 209.929C668.478 209.416 670.128 209.202 671.777 209.202C673.62 209.159 675.512 209.416 677.258 209.972C678.616 210.4 679.877 211.084 680.944 211.983C681.866 212.796 682.594 213.78 682.982 214.892C683.418 216.004 683.612 217.16 683.612 218.357V230.165C683.612 230.807 683.661 231.492 683.709 232.219C683.758 232.946 683.855 233.545 683.952 233.93H677.209C677.112 233.502 677.064 233.032 677.015 232.604C676.967 232.048 676.918 231.534 676.918 231.064C676.142 232.091 675.124 232.946 673.911 233.545C672.407 234.315 670.661 234.7 668.915 234.615C667.605 234.615 666.247 234.444 665.035 234.016C663.919 233.631 662.949 233.117 662.076 232.39C661.3 231.748 660.669 230.978 660.233 230.08C659.747 229.353 659.505 228.411 659.505 227.47ZM670.419 229.866C671.195 229.866 671.922 229.78 672.65 229.609C673.378 229.438 674.008 229.139 674.542 228.668C675.124 228.197 675.56 227.598 675.851 226.957C676.191 226.101 676.385 225.203 676.336 224.304V223.235L670.176 224.048C669.303 224.133 668.478 224.475 667.751 224.946C667.072 225.502 666.732 226.272 666.781 227.085C666.781 227.812 667.12 228.497 667.654 229.01C668.478 229.609 669.4 229.951 670.419 229.866Z" fill="#343655"/>
<path d="M521.52 197.538C516.185 197.538 511.334 198.907 506.629 201.132V208.319C511.334 205.153 515.748 203.185 521.52 203.185C533.113 203.185 542.572 211.228 542.572 221.025C542.572 232.534 528.893 247.037 521.714 254.096C517.785 250.374 512.159 243.572 507.599 238.053H500.032C505.707 246.353 514.147 255.38 518.852 259.786L519.337 260.214C519.968 260.77 520.793 261.112 521.714 261.198C522.636 261.155 523.46 260.813 524.091 260.214L524.576 259.658C531.9 252.513 549.023 235.871 549.023 221.068C549.168 208.191 536.751 197.538 521.52 197.538Z" fill="url(#paint1_linear_0_1)"/>
</g>
<path d="M337.644 233.678C336.01 233.678 334.562 233.319 333.301 232.603C332.068 231.886 331.079 230.983 330.334 229.894L330.807 228.647V233.248H326.807V199.965H330.764V219.53L330.635 218.025C331.351 217.051 332.369 216.262 333.688 215.66C335.035 215.03 336.526 214.714 338.16 214.714C339.765 214.714 341.227 215.101 342.546 215.875C343.864 216.649 344.911 217.739 345.685 219.143C346.487 220.519 346.889 222.168 346.889 224.088C346.889 226.095 346.459 227.815 345.599 229.249C344.767 230.682 343.649 231.786 342.245 232.56C340.84 233.305 339.306 233.678 337.644 233.678ZM336.827 230.281C337.973 230.281 339.005 230.008 339.923 229.464C340.84 228.919 341.557 228.188 342.073 227.271C342.589 226.324 342.847 225.249 342.847 224.045C342.847 222.899 342.574 221.867 342.03 220.949C341.514 220.003 340.797 219.258 339.88 218.713C338.991 218.169 337.973 217.896 336.827 217.896C335.852 217.896 334.949 218.083 334.118 218.455C333.286 218.828 332.584 219.344 332.011 220.003C331.437 220.634 331.036 221.379 330.807 222.239V225.808C331.036 226.669 331.423 227.443 331.968 228.131C332.512 228.79 333.2 229.32 334.032 229.722C334.863 230.094 335.795 230.281 336.827 230.281ZM350.362 241.805L362.101 215.445H365.799L354.318 241.805H350.362ZM354.748 233.377L346.191 215.445H350.706L357.887 231.356L354.748 233.377Z" fill="#544E4E"/>
<path d="M22.4 189L46.2666 126.52H63.1478L87.0144 189H70.7153L65.0882 174.835H44.2292L38.6991 189H22.4ZM46.3636 163.29H62.9538L54.6102 141.558L46.3636 163.29ZM103.731 189L79.8646 126.52H96.1637L112.075 171.149L128.083 126.52H144.479L120.612 189H103.731ZM149.028 189V126.52H195.112V138.55H164.648V151.648H191.522V163.872H164.648V176.97H195.112V189H149.028ZM200.619 189V126.52H216.239V176.97H245.732V189H200.619ZM249.841 189V126.52H265.461V176.97H294.954V189H249.841ZM297.122 189L320.989 126.52H337.87L361.736 189H345.437L339.81 174.835H318.951L313.421 189H297.122ZM321.086 163.29H337.676L329.332 141.558L321.086 163.29ZM367.707 189V126.52H381.095L407.679 163.872V126.52H423.396V189H409.91L383.327 151.745V189H367.707ZM431.33 189V126.52H477.414V138.55H446.95V151.648H473.824V163.872H446.95V176.97H477.414V189H431.33ZM482.92 189V126.52H509.989C516.327 126.52 521.663 127.587 525.997 129.722C530.33 131.791 533.629 135.155 535.893 139.812C538.156 144.404 539.288 150.516 539.288 158.148C539.288 168.885 536.798 176.711 531.818 181.627C526.902 186.542 519.626 189 509.989 189H482.92ZM498.54 176.97H507.854C511.217 176.97 514.031 176.485 516.295 175.514C518.623 174.48 520.37 172.604 521.534 169.887C522.763 167.171 523.377 163.258 523.377 158.148C523.377 152.974 522.827 148.996 521.728 146.215C520.693 143.369 519.011 141.396 516.683 140.297C514.419 139.132 511.476 138.55 507.854 138.55H498.54V176.97ZM538.066 189L561.932 126.52H578.813L602.68 189H586.381L580.754 174.835H559.895L554.365 189H538.066ZM562.029 163.29H578.619L570.276 141.558L562.029 163.29ZM627.554 189V126.52H673.638V138.55H643.174V151.648H670.048V163.872H643.174V176.97H673.638V189H627.554ZM679.144 189V126.52H692.533L719.116 163.872V126.52H734.833V189H721.348L694.764 151.745V189H679.144ZM783.597 189L759.731 126.52H776.03L791.941 171.149L807.949 126.52H824.345L800.478 189H783.597ZM828.894 189V126.52H844.514V189H828.894ZM872.945 189L849.079 126.52H865.378L881.289 171.149L897.297 126.52H913.693L889.826 189H872.945ZM944.982 189.97C934.827 189.97 927.098 187.383 921.794 182.209C916.49 177.034 913.839 168.982 913.839 158.051C913.839 146.473 916.49 138.162 921.794 133.117C927.098 128.072 934.827 125.55 944.982 125.55C955.136 125.55 962.865 128.072 968.169 133.117C973.473 138.162 976.125 146.473 976.125 158.051C976.125 168.982 973.473 177.034 968.169 182.209C962.865 187.383 955.136 189.97 944.982 189.97ZM944.982 176.679C950.221 176.679 954.037 175.191 956.43 172.216C958.888 169.176 960.117 164.454 960.117 158.051C960.117 151.066 958.888 146.15 956.43 143.304C954.037 140.394 950.221 138.938 944.982 138.938C939.678 138.938 935.797 140.394 933.339 143.304C930.946 146.15 929.75 151.066 929.75 158.051C929.75 164.454 930.946 169.176 933.339 172.216C935.797 175.191 939.678 176.679 944.982 176.679Z" fill="#333030"/>
</g>
<defs>
<linearGradient id="paint0_linear_0_1" x1="453.075" y1="198.122" x2="453.075" y2="234.76" gradientUnits="userSpaceOnUse">
<stop stop-color="#C73056"/>
<stop offset="1" stop-color="#FF2176"/>
</linearGradient>
<linearGradient id="paint1_linear_0_1" x1="524.521" y1="197.541" x2="524.521" y2="261.225" gradientUnits="userSpaceOnUse">
<stop stop-color="#C73056"/>
<stop offset="1" stop-color="#FF2176"/>
</linearGradient>
<clipPath id="clip0_0_1">
<rect width="990" height="353" fill="white"/>
</clipPath>
<clipPath id="clip1_0_1">
<rect width="314.908" height="64.0491" fill="white" transform="translate(369.582 197.34)"/>
</clipPath>
</defs>
</svg>
